# File created by Blade
# Date/Time:  Tue Jan 27 19:58:31 2015
# Frame Rate: 120.000 fps
#------------------------------------------------------
:FULLY-SPECIFIED
:DEGREES
3509
root 6.426706 31.940499 3.790612 0.632844 -0.742834 0.851277
Spine 4.784104 9.158327 0.147592
Head -7.964575 -11.764914 4.616560
LeftShoulder -12.349391 -1.223386 29.691226
LeftArm -6.240027 0.747493 -87.460879
LeftForeArm -4.471651 -0.000000 99.965175
LeftHand 11.483737 0.000000 -19.104048
LeftHandThumb1 -26.253704 0.000000 33.147579
RightShoulder -15.734349 -16.918732 -21.477746
RightArm 16.653830 -34.300281 84.049234
RightForeArm -24.449514 -0.000000 36.011568
RightHand 18.925253 -0.000000 9.334088
RightHandThumb1 -24.326973 -0.000000 -32.862282
LeftUpLeg 7.869014 -5.581765 -10.330149
LeftLeg -1.771702 -0.000000 0.000000
LeftFoot -16.294336 14.842581 -16.701005
LeftToeBase 22.239440 -0.000000 -0.000000
RightUpLeg -2.269403 -5.094889 3.137748
RightLeg 19.945077 -0.000000 -0.000000
RightFoot -27.795394 -3.154766 25.173676
RightToeBase 4.965453 -0.000000 -0.000000
3510
root 6.398769 31.943036 3.840585 0.515461 -0.263892 0.891066
Spine 4.670751 9.018536 0.011275
Head -7.862192 -12.097191 4.815329
LeftShoulder -12.362243 -1.108589 29.718533
LeftArm -6.469767 1.623633 -87.739936
LeftForeArm -3.106474 -0.000000 98.882049
LeftHand 11.785073 -0.000000 -18.293168
LeftHandThumb1 -26.253704 0.000000 33.147579
RightShoulder -15.958914 -17.185619 -21.349229
RightArm 16.231767 -34.304840 84.356041
RightForeArm -24.371785 -0.000000 36.145425
RightHand 18.937991 -0.000000 9.377206
RightHandThumb1 -24.326973 -0.000000 -32.862282
LeftUpLeg 8.076180 -5.799489 -10.325243
LeftLeg -1.759183 -0.000000 0.000000
LeftFoot -16.229258 14.753404 -16.625446
LeftToeBase 22.095174 -0.000000 -0.000000
RightUpLeg -1.834597 -5.730349 3.079649
RightLeg 19.540004 -0.000000 -0.000000
RightFoot -27.312629 -3.495763 24.962322
RightToeBase 4.917411 -0.000000 -0.000000
3511
root 6.368440 31.946854 3.878453 0.443326 0.152078 0.891967
Spine 4.550520 8.948728 -0.090742
Head -7.804595 -12.379084 4.989587
LeftShoulder -12.420094 -0.960652 29.714737
LeftArm -6.575311 2.555867 -88.018949
LeftForeArm -2.122096 -0.000000 97.780407
LeftHand 11.627105 0.000000 -17.275326
LeftHandThumb1 -26.253704 0.000000 33.147579
RightShoulder -16.172728 -17.451041 -21.206502
RightArm 15.835524 -34.244932 84.663002
RightForeArm -24.267255 -0.000000 36.209351
RightHand 19.155748 -0.000000 9.418526
RightHandThumb1 -24.326973 -0.000000 -32.862282
LeftUpLeg 8.182379 -5.950843 -10.269674
LeftLeg -1.667096 -0.000000 0.000000
LeftFoot -16.159732 14.616120 -16.449819
LeftToeBase 21.857919 -0.000000 -0.000000
RightUpLeg -1.428313 -6.497522 3.031289
RightLeg 19.026113 -0.000000 -0.000000
RightFoot -26.632852 -3.678825 24.663939
RightToeBase 5.181851 -0.000000 -0.000000
3512
root 6.338927 31.950803 3.925505 0.334639 0.550285 0.918112
Spine 4.439234 8.907800 -0.212665
Head -7.728989 -12.765991 5.194526
LeftShoulder -12.461357 -0.817083 29.709858
LeftArm -6.678581 3.455500 -88.290477
LeftForeArm -1.204676 -0.000000 96.512766
LeftHand 11.809729 -0.000000 -16.469830
LeftHandThumb1 -26.253704 0.000000 33.147579
RightShoulder -16.406573 -17.826856 -21.065599
RightArm 15.581226 -34.211032 84.926161
RightForeArm -24.238152 0.000000 36.227228
RightHand 19.232317 -0.000000 9.370867
RightHandThumb1 -24.326973 -0.000000 -32.862282
LeftUpLeg 8.390930 -6.228189 -10.264081
LeftLeg -1.694477 -0.000000 0.000000
LeftFoot -16.189201 14.662299 -16.568643
LeftToeBase 22.020098 -0.000000 -0.000000
RightUpLeg -1.006276 -7.056033 2.995859
RightLeg 18.577912 -0.000000 -0.000000
RightFoot -26.061390 -4.066934 24.275788
RightToeBase 5.779738 -0.000000 -0.000000
3513
root 6.309736 31.954413 3.960221 0.273721 0.929142 0.943906
Spine 4.318373 8.868958 -0.349403
Head -7.670849 -13.083093 5.362857
LeftShoulder -12.524030 -0.651223 29.704092
LeftArm -6.690664 4.291359 -88.596025
LeftForeArm -0.627273 -0.000000 95.166305
LeftHand 11.999678 -0.000000 -15.848119
LeftHandThumb1 -26.253704 0.000000 33.147579
RightShoulder -16.621499 -18.099385 -20.934347
RightArm 15.263388 -34.191107 85.206330
RightForeArm -24.166143 0.000000 36.282690
RightHand 19.190861 -0.000000 9.724466
RightHandThumb1 -24.326973 -0.000000 -32.862282
LeftUpLeg 8.418131 -6.226304 -10.231799
LeftLeg -1.493682 -0.000000 0.000000
LeftFoot -16.212085 14.465939 -16.598916
LeftToeBase 21.880192 -0.000000 -0.000000
RightUpLeg -0.655351 -7.886324 2.946248
RightLeg 18.078272 -0.000000 -0.000000
RightFoot -25.549168 -4.205481 24.056273
RightToeBase 6.594146 -0.000000 -0.000000
3514
root 6.274225 31.958601 4.012026 0.118382 1.256047 0.935619
Spine 4.252972 8.877435 -0.456223
Head -7.558210 -13.404150 5.553121
LeftShoulder -12.520557 -0.747801 29.751155
LeftArm -7.024610 5.064956 -88.882282
LeftForeArm -0.244333 -0.000000 93.827707
LeftHand 12.161382 -0.000000 -15.269451
LeftHandThumb1 -26.253704 0.000000 33.147579
RightShoulder -16.815934 -18.391681 -20.811748
RightArm 14.959710 -34.189364 85.501285
RightForeArm -24.120593 -0.000000 36.246510
RightHand 19.051120 -0.000000 9.348116
RightHandThumb1 -24.326973 -0.000000 -32.862282
LeftUpLeg 8.594861 -6.068486 -10.135466
LeftLeg -1.360231 -0.000000 0.000000
LeftFoot -16.206251 14.109807 -16.602162
LeftToeBase 21.671061 -0.000000 -0.000000
RightUpLeg -0.190755 -8.302726 2.935762
RightLeg 17.668963 -0.000000 -0.000000
RightFoot -25.104903 -4.399207 23.839945
RightToeBase 7.033363 -0.000000 -0.000000
3515
root 6.241467 31.964479 4.052845 -0.039808 1.510578 0.932940
Spine 4.248268 8.947390 -0.555967
Head -7.555502 -13.760654 5.773149
LeftShoulder -12.526620 -0.748765 29.735760
LeftArm -7.180978 5.704342 -89.164961
LeftForeArm 0.200253 0.000000 92.492714
LeftHand 12.348986 -0.000000 -15.128112
LeftHandThumb1 -26.253704 0.000000 33.147579
RightShoulder -16.989991 -18.553494 -20.736577
RightArm 14.571909 -34.150991 85.874857
RightForeArm -24.000944 -0.000000 36.177393
RightHand 19.030946 -0.000000 9.262968
RightHandThumb1 -24.326973 -0.000000 -32.862282
LeftUpLeg 8.747534 -5.939335 -10.059974
LeftLeg -1.218387 -0.000000 0.000000
LeftFoot -16.203946 13.858088 -16.573454
LeftToeBase 21.648670 -0.000000 -0.000000
RightUpLeg 0.202952 -8.544429 2.946751
RightLeg 17.350473 -0.000000 -0.000000
RightFoot -24.821530 -4.769367 23.767031
RightToeBase 7.014242 -0.000000 -0.000000
3516
root 6.208482 31.969823 4.095146 -0.173295 1.861795 0.916751
Spine 4.200359 8.871831 -0.659556
Head -7.463616 -13.945312 5.939764
LeftShoulder -12.558330 -0.564370 29.699861
LeftArm -7.186315 6.309721 -89.437976
LeftForeArm 0.849671 -0.000000 91.236229
LeftHand 12.482611 -0.000000 -14.985398
LeftHandThumb1 -26.253704 0.000000 33.147579
RightShoulder -17.109507 -18.676915 -20.667742
RightArm 14.181679 -34.153761 86.219964
RightForeArm -23.751657 -0.000000 36.032462
RightHand 19.201937 -0.000000 9.641034
RightHandThumb1 -24.326973 -0.000000 -32.862282
LeftUpLeg 8.866151 -5.926290 -9.976964
LeftLeg -1.046758 -0.000000 0.000000
LeftFoot -16.216321 13.650207 -16.502516
LeftToeBase 21.604327 -0.000000 -0.000000
RightUpLeg 0.601798 -8.949516 2.957621
RightLeg 16.992395 -0.000000 -0.000000
RightFoot -24.449367 -5.107452 23.599754
RightToeBase 6.745785 -0.000000 -0.000000
3517
root 6.174088 31.975432 4.130066 -0.276441 2.098215 0.895536
Spine 4.131251 8.907604 -0.761828
Head -7.363992 -14.124179 6.101887
LeftShoulder -12.545455 -0.578185 29.691978
LeftArm -7.396360 6.791541 -89.748858
LeftForeArm 1.914587 0.000000 90.068956
LeftHand 12.489350 0.000000 -14.898699
LeftHandThumb1 -26.253704 0.000000 33.147579
RightShoulder -17.215256 -18.776962 -20.641847
RightArm 13.771879 -34.117451 86.626424
RightForeArm -23.624176 -0.000000 35.903490
RightHand 19.070609 0.000000 9.515792
RightHandThumb1 -24.326973 -0.000000 -32.862282
LeftUpLeg 8.929660 -5.843535 -9.887947
LeftLeg -0.859994 -0.000000 0.000000
LeftFoot -16.226310 13.503528 -16.357053
LeftToeBase 21.479381 -0.000000 -0.000000
RightUpLeg 0.919435 -9.205371 3.000489
RightLeg 16.680307 -0.000000 -0.000000
RightFoot -24.218980 -5.367611 23.441046
RightToeBase 7.217854 -0.000000 -0.000000
3518
root 6.134152 31.980329 4.170468 -0.425316 2.320100 0.845634
Spine 4.106742 8.951495 -0.841480
Head -7.291515 -14.380350 6.310128
LeftShoulder -12.528576 -0.496591 29.672233
LeftArm -7.502836 7.263662 -90.017234
LeftForeArm 3.455759 -0.000000 88.990439
LeftHand 12.597270 -0.000000 -14.712520
LeftHandThumb1 -26.253704 0.000000 33.147579
RightShoulder -17.336898 -18.998581 -20.558165
RightArm 13.575520 -34.083846 86.906792
RightForeArm -23.386523 0.000000 35.679905
RightHand 19.245489 -0.000000 9.535571
RightHandThumb1 -24.326973 -0.000000 -32.862282
LeftUpLeg 9.079706 -5.816582 -9.771208
LeftLeg -0.732237 -0.000000 0.000000
LeftFoot -16.276203 13.393188 -16.245112
LeftToeBase 21.507268 -0.000000 -0.000000
RightUpLeg 1.292435 -9.409145 3.085975
RightLeg 16.371928 -0.000000 -0.000000
RightFoot -23.975412 -5.550610 23.239192
RightToeBase 7.762398 -0.000000 -0.000000
3519
root 6.099159 31.985450 4.211337 -0.576966 2.504864 0.835337
Spine 4.087121 8.972762 -0.969615
Head -7.234914 -14.569870 6.542387
LeftShoulder -12.527108 -0.400736 29.659792
LeftArm -7.651100 7.724753 -90.292458
LeftForeArm 5.203295 -0.000000 88.027567
LeftHand 12.568507 0.000000 -14.197344
LeftHandThumb1 -26.253704 0.000000 33.147579
RightShoulder -17.409070 -19.056942 -20.546371
RightArm 13.223141 -34.075586 87.275636
RightForeArm -23.222848 -0.000000 35.443524
RightHand 19.199678 0.000000 9.521686
RightHandThumb1 -24.326973 -0.000000 -32.862282
LeftUpLeg 9.233478 -5.786295 -9.701787
LeftLeg -0.602517 -0.000000 0.000000
LeftFoot -16.312367 13.289367 -16.145952
LeftToeBase 21.322901 -0.000000 -0.000000
RightUpLeg 1.667232 -9.425895 3.153618
RightLeg 16.068921 -0.000000 -0.000000
RightFoot -23.808649 -5.825759 23.044085
RightToeBase 8.047632 -0.000000 -0.000000
3520
root 6.058186 31.990682 4.256190 -0.772095 2.680478 0.815382
Spine 4.112774 8.967894 -1.107551
Head -7.150544 -14.666193 6.753373
LeftShoulder -12.529464 -0.242624 29.659748
LeftArm -7.741549 8.125485 -90.532028
LeftForeArm 6.996758 0.000000 87.092533
LeftHand 12.499008 -0.000000 -13.747888
LeftHandThumb1 -26.253704 0.000000 33.147579
RightShoulder -17.455429 -19.136262 -20.538788
RightArm 12.939755 -34.040349 87.639088
RightForeArm -23.056708 -0.000000 35.180829
RightHand 19.094935 -0.000000 9.136957
RightHandThumb1 -24.326973 -0.000000 -32.862282
LeftUpLeg 9.441773 -5.747211 -9.617523
LeftLeg -0.486172 -0.000000 0.000000
LeftFoot -16.348115 13.192668 -16.093772
LeftToeBase 21.267185 -0.000000 -0.000000
RightUpLeg 2.106236 -9.604293 3.216945
RightLeg 15.735434 -0.000000 -0.000000
RightFoot -23.576303 -6.082965 22.717385
RightToeBase 7.888702 -0.000000 -0.000000
